<svg width="24" height="24" viewBox="0 0 24 24" fill="none" xmlns="http://www.w3.org/2000/svg">
<rect width="24" height="24" rx="1.33333" fill="#1DADEB"/>
<path fill-rule="evenodd" clip-rule="evenodd" d="M16.1551 10.1424C16.5786 9.9122 16.9039 9.54772 17.0571 9.1134C16.6607 9.32657 16.2216 9.48132 15.7543 9.56472C15.3801 9.20324 14.8469 8.97742 14.2568 8.97742C13.1238 8.97742 12.2051 9.81012 12.2051 10.8372C12.2051 10.983 12.2233 11.125 12.2583 11.2611C10.5532 11.1835 9.04142 10.4431 8.02957 9.31782C7.85297 9.59251 7.75177 9.91202 7.75177 10.2529C7.75177 10.8982 8.11397 11.4674 8.66447 11.8009C8.32817 11.7913 8.01182 11.7076 7.73522 11.5683C7.73502 11.5761 7.73502 11.5838 7.73502 11.5917C7.73502 12.4928 8.44222 13.2445 9.38077 13.4154C9.20862 13.4579 9.02737 13.4807 8.84027 13.4807C8.70807 13.4807 8.57952 13.469 8.45427 13.4473C8.71532 14.1861 9.47297 14.7239 10.3708 14.7389C9.66862 15.2377 8.78402 15.5351 7.82277 15.5351C7.65717 15.5351 7.49387 15.5262 7.33337 15.5091C8.24132 16.0367 9.31972 16.3447 10.4783 16.3447C14.252 16.3447 16.3156 13.5107 16.3156 11.0529C16.3156 10.9723 16.3136 10.8921 16.3096 10.8123C16.7105 10.55 17.0583 10.2225 17.3334 9.84951C16.9655 9.99746 16.57 10.0974 16.1551 10.1424Z" fill="white"/>
</svg>
